<?xml version="1.0" encoding="utf-8"?>
<!-- Generator: Adobe Illustrator 16.0.0, SVG Export Plug-In . SVG Version: 6.00 Build 0)  -->
<!DOCTYPE svg PUBLIC "-//W3C//DTD SVG 1.1//EN" "http://www.w3.org/Graphics/SVG/1.1/DTD/svg11.dtd">
<svg version="1.1" id="レイヤー_1" xmlns="http://www.w3.org/2000/svg" xmlns:xlink="http://www.w3.org/1999/xlink" x="0px"
	 y="0px" width="800px" height="450px" viewBox="0 0 800 450" enable-background="new 0 0 800 450" xml:space="preserve">
<path fill="none" stroke="#00D13C" stroke-miterlimit="10" d="M173.106,180.736l-43.349-75.863c0,0-8.544-18.092,9.548-29.651
	c0,0,21.106-20.604,37.189,3.015l139.711,199.012c0,0,11.056,15.078,25.127,0l16.921-16.748c0,0,12.06-20.93,1.674-34.422
	l-50.544-54.996"/>
<path fill="none" stroke="#FF2DE2" stroke-miterlimit="10" d="M309.383,171.083L199.109,51.1c0,0-7.035-11.726,1.34-18.093
	c0,0,3.015-4.688,13.068-5.36l79.403-6.032c0,0,36.854-7.035,60.642,34.509l50.926,84.096c0,0,13.402,24.458,41.545,9.38
	c0,0,24.793-16.081,41.209,1.34c0,0,12.062,7.705,10.385,32.162l-0.385,18.333"/>
<path fill="none" stroke="#004EE3" stroke-miterlimit="10" d="M497.242,201.437l-1.291,61.407c0,0,3.354,30.486,27.812,8.71
	l127.312-107.211c0,0,9.383-8.041,17.758,2.345c0,0,7.705,8.377,0,19.098l-205.43,189.07"/>
<path fill="none" stroke="#D4DB00" stroke-miterlimit="10" d="M463.404,374.855l-51.209,47.129c0,0-14.072,15.414-23.118,0
	l-36.184-63.651c0,0-7.708-14.074-16.418-13.74l-34.843-11.056c0,0-6.701-4.356-13.737,6.701c0,0-6.701,8.711-14.741,6.702
	c0,0-2.011,5.022-16.752-18.431l-72.368-128.654l-10.927-19.12"/>
</svg>
